<?xml version="1.0" encoding="UTF-8" standalone="no"?>
<!-- Created with Inkscape (http://www.inkscape.org/) -->

<svg
   width="50"
   height="50"
   viewBox="0 0 13.229166 13.229167"
   version="1.1"
   id="svg1"
   inkscape:version="1.4.1 (93de688d07, 2025-03-30)"
   sodipodi:docname="down_idle.svg"
   inkscape:export-filename="right_idle.png"
   inkscape:export-xdpi="96"
   inkscape:export-ydpi="96"
   xmlns:inkscape="http://www.inkscape.org/namespaces/inkscape"
   xmlns:sodipodi="http://sodipodi.sourceforge.net/DTD/sodipodi-0.dtd"
   xmlns="http://www.w3.org/2000/svg"
   xmlns:svg="http://www.w3.org/2000/svg">
  <sodipodi:namedview
     id="namedview1"
     pagecolor="#ffffff"
     bordercolor="#000000"
     borderopacity="0.25"
     inkscape:showpageshadow="2"
     inkscape:pageopacity="0.0"
     inkscape:pagecheckerboard="0"
     inkscape:deskcolor="#d1d1d1"
     inkscape:document-units="px"
     inkscape:zoom="8"
     inkscape:cx="21.625"
     inkscape:cy="22.9375"
     inkscape:window-width="1076"
     inkscape:window-height="1046"
     inkscape:window-x="0"
     inkscape:window-y="30"
     inkscape:window-maximized="0"
     inkscape:current-layer="svg1" />
  <defs
     id="defs1" />
  <g
     id="g1"
     transform="matrix(-1.0003707,0,0,-1,13.236103,13.304434)"
     style="stroke-width:0.999818">
    <ellipse
       style="fill:#ffffff;stroke:#000000;stroke-width:0.529069;stroke-linecap:round;stroke-linejoin:miter;stroke-dasharray:none"
       id="path4"
       cx="2.6065791"
       cy="6.3566895"
       rx="2.3375127"
       ry="1.4125978" />
    <ellipse
       style="fill:#ffffff;stroke:#000000;stroke-width:0.529069;stroke-linecap:round;stroke-linejoin:miter;stroke-dasharray:none"
       id="path4-2"
       cx="10.62707"
       cy="6.3566895"
       rx="2.3375127"
       ry="1.4125978" />
    <ellipse
       style="fill:#ffccaa;stroke:#000000;stroke-width:0.529069;stroke-dasharray:none"
       id="path1"
       cx="6.3925633"
       cy="6.6656742"
       rx="4.1746202"
       ry="3.4824064" />
    <ellipse
       style="fill:#ffffff;stroke:#000000;stroke-width:0.529069;stroke-dasharray:none"
       id="path2"
       cx="6.3925629"
       cy="7.1648383"
       rx="3.3309989"
       ry="3.0329318" />
    <path
       style="fill:#ffffff;stroke:#000000;stroke-width:0.529069;stroke-linecap:round;stroke-linejoin:miter;stroke-dasharray:none"
       d="M 2.5341551,5.4180492 3.4113272,5.8587008"
       id="path16" />
    <path
       style="fill:#ffffff;stroke:#000000;stroke-width:0.529069;stroke-linecap:round;stroke-linejoin:miter;stroke-dasharray:none"
       d="M 10.201912,5.4180492 9.3833262,5.8587008"
       id="path16-2" />
    <path
       style="fill:#28170b;stroke:none;stroke-width:1.99963;stroke-linecap:round;stroke-linejoin:miter;stroke-dasharray:none;stroke-opacity:1"
       d="m 37.122216,30.932755 c -4.79e-4,-0.02566 0.02807,-0.128373 0.06343,-0.228247 0.03537,-0.09988 0.108532,-0.340327 0.162585,-0.534337 0.63253,-2.270316 0.544945,-4.725343 -0.24802,-6.952052 -0.105495,-0.296239 -0.20111,-0.567507 -0.212476,-0.602817 -0.01541,-0.04787 0.159581,-0.161356 0.687885,-0.44612 0.389703,-0.210056 0.716822,-0.38192 0.72693,-0.38192 0.02918,0 0.267246,0.767706 0.352575,1.136986 0.189995,0.822244 0.229734,1.21421 0.229734,2.265977 0,0.786906 -0.01703,1.119929 -0.07533,1.473234 -0.144122,0.873381 -0.410516,1.80503 -0.729776,2.552222 -0.256763,0.600923 -0.955004,1.853015 -0.957543,1.717074 z"
       id="path17"
       transform="scale(0.26458333)" />
    <path
       style="fill:#28170b;stroke:none;stroke-width:0.999818;stroke-linecap:round;stroke-linejoin:miter;stroke-dasharray:none;stroke-opacity:1"
       d="m 10.52678,29.738924 c -0.7592656,-1.54705 -1.0766926,-2.89737 -1.0766926,-4.580201 0,-0.959508 0.1227754,-1.862445 0.3738794,-2.749655 0.068276,-0.241236 0.1394733,-0.46499 0.1582154,-0.497229 0.018742,-0.03224 0.3538018,0.101958 0.7445768,0.298217 l 0.7105,0.356834 -0.203899,0.539133 c -0.411282,1.08748 -0.598147,2.115555 -0.644103,3.543649 -0.04532,1.408421 0.02612,2.176012 0.305719,3.28484 0.087,0.345004 0.139683,0.645772 0.117081,0.668373 -0.0226,0.0226 -0.240976,-0.366181 -0.485277,-0.863961 z"
       id="path18"
       transform="scale(0.26458333)" />
  </g>
</svg>
