<?xml version="1.0" encoding="UTF-8" standalone="no"?>
<!-- Created with Inkscape (http://www.inkscape.org/) -->

<svg
   width="50"
   height="50"
   viewBox="0 0 13.229166 13.229167"
   version="1.1"
   id="svg1"
   inkscape:version="1.4.2 (ebf0e940d0, 2025-05-08)"
   sodipodi:docname="fish.svg"
   inkscape:export-filename="egg.png"
   inkscape:export-xdpi="96"
   inkscape:export-ydpi="96"
   xmlns:inkscape="http://www.inkscape.org/namespaces/inkscape"
   xmlns:sodipodi="http://sodipodi.sourceforge.net/DTD/sodipodi-0.dtd"
   xmlns="http://www.w3.org/2000/svg"
   xmlns:svg="http://www.w3.org/2000/svg">
  <sodipodi:namedview
     id="namedview1"
     pagecolor="#ffffff"
     bordercolor="#000000"
     borderopacity="0.25"
     inkscape:showpageshadow="2"
     inkscape:pageopacity="0.0"
     inkscape:pagecheckerboard="0"
     inkscape:deskcolor="#d1d1d1"
     inkscape:document-units="mm"
     inkscape:zoom="11.402918"
     inkscape:cx="12.628346"
     inkscape:cy="28.326083"
     inkscape:window-width="1920"
     inkscape:window-height="1011"
     inkscape:window-x="0"
     inkscape:window-y="0"
     inkscape:window-maximized="1"
     inkscape:current-layer="g37" />
  <defs
     id="defs1">
    <linearGradient
       id="swatch15"
       inkscape:swatch="solid">
      <stop
         style="stop-color:#ecd777;stop-opacity:1;"
         offset="0"
         id="stop15" />
    </linearGradient>
  </defs>
  <g
     inkscape:label="Layer 1"
     inkscape:groupmode="layer"
     id="layer1">
    <g
       id="g37"
       transform="translate(0.10248684,-0.12508589)">
      <path
         id="path40"
         style="fill:#6f8a91;stroke:#000000;stroke-width:0.694544;stroke-linecap:round"
         d="M 12.049136,9.0008068 C 12.960022,9.9214601 11.998813,10.635727 11.03034,11.593935 10.061862,12.552143 9.4528491,13.391437 8.541961,12.470784 8.1387138,12.063213 8.2108709,11.424253 8.1798505,10.881821 8.1407998,10.198962 8.2841506,9.7297078 8.8238876,9.1956956 9.4071869,8.6185832 9.897952,8.5089221 10.628822,8.6099914 c 0.482628,0.066742 1.058038,0.024657 1.420314,0.3908154 z"
         sodipodi:nodetypes="sssssss" />
      <path
         id="path38"
         style="fill:#afdde9;stroke:#000000;stroke-width:0.998812;stroke-linecap:round"
         d="M 6.6898802,3.2297995 C 8.844748,5.4077684 9.7552799,8.0008237 8.7236105,9.0215505 7.691941,10.042277 5.1087421,9.1041474 2.9538745,6.9261783 0.79900692,4.7482094 -0.11152503,2.1551542 0.92014449,1.1344276 1.951814,0.11370076 4.5350127,1.0518307 6.6898802,3.2297995 Z"
         sodipodi:nodetypes="sssss" />
      <path
         style="fill:#ffcc00;fill-opacity:1;stroke:#000000;stroke-width:0.977915;stroke-linecap:round;stroke-dasharray:none;stroke-opacity:1"
         d="M 1.3400521,4.8262941 4.5035451,1.6963556"
         id="path39" />
    </g>
  </g>
</svg>
