<?xml version="1.0" encoding="UTF-8" standalone="no"?>
<!-- Created with Inkscape (http://www.inkscape.org/) -->

<svg
   width="75"
   height="75"
   viewBox="0 0 19.84375 19.84375"
   version="1.1"
   id="svg1"
   inkscape:export-filename="grill.png"
   inkscape:export-xdpi="96"
   inkscape:export-ydpi="96"
   inkscape:version="1.4.2 (ebf0e940d0, 2025-05-08)"
   sodipodi:docname="pot.svg"
   xmlns:inkscape="http://www.inkscape.org/namespaces/inkscape"
   xmlns:sodipodi="http://sodipodi.sourceforge.net/DTD/sodipodi-0.dtd"
   xmlns="http://www.w3.org/2000/svg"
   xmlns:svg="http://www.w3.org/2000/svg">
  <sodipodi:namedview
     id="namedview1"
     pagecolor="#ffffff"
     bordercolor="#000000"
     borderopacity="0.25"
     inkscape:showpageshadow="2"
     inkscape:pageopacity="0.0"
     inkscape:pagecheckerboard="0"
     inkscape:deskcolor="#d1d1d1"
     inkscape:document-units="mm"
     inkscape:zoom="3.4923218"
     inkscape:cx="-6.0131916"
     inkscape:cy="68.149505"
     inkscape:window-width="1920"
     inkscape:window-height="1011"
     inkscape:window-x="0"
     inkscape:window-y="0"
     inkscape:window-maximized="1"
     inkscape:current-layer="layer1" />
  <defs
     id="defs1" />
  <g
     inkscape:label="Layer 1"
     inkscape:groupmode="layer"
     id="layer1">
    <rect
       style="fill:#52a1a6;fill-opacity:1;stroke-width:0.79375;stroke-dasharray:none;stroke:#000000;stroke-opacity:1"
       id="rect1"
       width="19.84375"
       height="19.84375"
       x="0"
       y="0" />
    <rect
       style="fill:#738385;fill-opacity:1;stroke:#000000;stroke-width:0.976;stroke-dasharray:none;stroke-opacity:1"
       id="rect1-1"
       width="16.875811"
       height="16.875811"
       x="1.3732709"
       y="1.3114709"
       ry="8.4379053" />
    <rect
       style="fill:#69c3e5;fill-opacity:1;stroke:#000000;stroke-width:1.10843;stroke-dasharray:none;stroke-opacity:1"
       id="rect1-1-3"
       width="12.146446"
       height="12.146446"
       x="3.7379525"
       y="3.6761525"
       ry="6.0732231" />
    <path
       sodipodi:type="spiral"
       style="fill:none;fill-rule:evenodd;stroke:#000000;stroke-width:0.264611;stroke-linecap:round;stroke-dasharray:none"
       id="path1"
       sodipodi:cx="7.3488598"
       sodipodi:cy="7.9549513"
       sodipodi:expansion="1"
       sodipodi:revolution="2.9669933"
       sodipodi:radius="2.7207179"
       sodipodi:argument="-18.181267"
       sodipodi:t0="0.039000001"
       d="M 7.3673824,8.0594301 C 7.2941446,8.2098193 7.0853108,8.11393 7.0186522,8.0134924 6.869193,7.7882954 7.0288041,7.5001729 7.2503002,7.3990148 7.6042381,7.2373701 8.0022426,7.4727242 8.1305251,7.8163732 8.3093198,8.2953368 7.9935123,8.8093694 7.5274564,8.9623454 6.9245253,9.1602487 6.2923433,8.7622147 6.1157368,8.1735664 5.8977791,7.4470899 6.3788721,6.6957709 7.0902262,6.4960995 7.9400421,6.257563 8.8110419,6.8221688 9.0334404,7.6562992 9.2928756,8.6293402 8.6444829,9.6203536 7.6875303,9.8652607 6.591334,10.145804 5.480088,9.4134461 5.2128215,8.3336403 4.9110268,7.1143341 5.7274711,5.8827034 6.9301522,5.5931842 8.2725371,5.2700343 9.6246625,6.1706528 9.9363557,7.4962252 10.066849,8.0511903 10.011342,8.6419507 9.7856752,9.1650077"
       transform="matrix(1.8270669,0,0,1.8270669,-3.8836518,-4.726293)" />
  </g>
</svg>
