<?xml version="1.0" encoding="UTF-8" standalone="no"?>
<!-- Created with Inkscape (http://www.inkscape.org/) -->

<svg
   width="50"
   height="50"
   viewBox="0 0 13.229166 13.229167"
   version="1.1"
   id="svg1"
   inkscape:version="1.4 (e7c3feb100, 2024-10-09)"
   sodipodi:docname="chef2.svg"
   inkscape:export-filename="../../../../../Documents/projects/foodForThought/data/images/chef/chef2.png"
   inkscape:export-xdpi="96"
   inkscape:export-ydpi="96"
   xmlns:inkscape="http://www.inkscape.org/namespaces/inkscape"
   xmlns:sodipodi="http://sodipodi.sourceforge.net/DTD/sodipodi-0.dtd"
   xmlns="http://www.w3.org/2000/svg"
   xmlns:svg="http://www.w3.org/2000/svg">
  <sodipodi:namedview
     id="namedview1"
     pagecolor="#ffffff"
     bordercolor="#000000"
     borderopacity="0.25"
     inkscape:showpageshadow="2"
     inkscape:pageopacity="0.0"
     inkscape:pagecheckerboard="0"
     inkscape:deskcolor="#d1d1d1"
     inkscape:document-units="px"
     inkscape:zoom="3.5702397"
     inkscape:cx="6.0220047"
     inkscape:cy="37.112355"
     inkscape:window-width="1438"
     inkscape:window-height="878"
     inkscape:window-x="1920"
     inkscape:window-y="200"
     inkscape:window-maximized="0"
     inkscape:current-layer="svg1" />
  <defs
     id="defs1" />
  <ellipse
     style="font-variation-settings:normal;opacity:1;fill:#2b2b2b;fill-opacity:1;fill-rule:evenodd;stroke:#000000;stroke-width:0.529167;stroke-linecap:butt;stroke-linejoin:miter;stroke-miterlimit:4;stroke-dasharray:none;stroke-dashoffset:0;stroke-opacity:1;stop-color:#000000;stop-opacity:1"
     id="path5"
     cx="-8.2815142"
     cy="3.477066"
     rx="1.1862504"
     ry="1.4949695"
     transform="scale(-1,1)" />
  <ellipse
     style="font-variation-settings:normal;fill:#2b2b2b;fill-opacity:1;fill-rule:evenodd;stroke:#000000;stroke-width:0.529167;stroke-linecap:butt;stroke-linejoin:miter;stroke-miterlimit:4;stroke-dasharray:none;stroke-dashoffset:0;stroke-opacity:1;stop-color:#000000"
     id="path5-5"
     cx="-4.6156349"
     cy="9.2873421"
     rx="1.1862504"
     ry="1.4949695"
     transform="scale(-1,1)" />
  <ellipse
     style="fill:#ffccaa;fill-opacity:1;stroke:#000000;stroke-width:0.529167;stroke-linecap:round;stroke-linejoin:miter;stroke-dasharray:none;stroke-opacity:1"
     id="path19-9"
     cx="12.625423"
     cy="5.3147926"
     rx="1.1150827"
     ry="1.2914881"
     transform="rotate(8.1819167)" />
  <ellipse
     style="fill:#ffccaa;fill-opacity:1;stroke:#000000;stroke-width:0.529167;stroke-linecap:round;stroke-linejoin:miter;stroke-dasharray:none;stroke-opacity:1"
     id="path19"
     cx="1.0314491"
     cy="4.0996022"
     rx="1.1150827"
     ry="1.2914881"
     transform="rotate(-8.4154289)" />
  <ellipse
     style="fill:#ffffff;stroke:#000000;stroke-width:0.529167;stroke-linecap:round;stroke-linejoin:miter;stroke-dasharray:none"
     id="path4"
     cx="4.2858267"
     cy="3.9198272"
     rx="2.3375127"
     ry="1.4125978"
     transform="rotate(18.560946)" />
  <ellipse
     style="fill:#ffffff;stroke:#000000;stroke-width:0.529167;stroke-linecap:round;stroke-linejoin:miter;stroke-dasharray:none"
     id="path4-2"
     cx="12.306318"
     cy="3.9198272"
     rx="2.3375127"
     ry="1.4125978"
     transform="rotate(18.560946)" />
  <ellipse
     style="fill:#ffccaa;stroke:#000000;stroke-width:0.529167;stroke-dasharray:none"
     id="path1"
     cx="6.3925633"
     cy="6.6656742"
     rx="4.1746202"
     ry="3.4824064" />
  <ellipse
     style="fill:#ffffff;stroke:#000000;stroke-width:0.529167;stroke-dasharray:none"
     id="path2"
     cx="-6.3925629"
     cy="7.1648383"
     rx="3.3309989"
     ry="3.0329318"
     transform="scale(-1,1)" />
  <path
     style="fill:#ffffff;stroke:#000000;stroke-width:0.529167;stroke-linecap:round;stroke-linejoin:miter;stroke-dasharray:none"
     d="M 2.5341551,5.4180492 3.4113273,5.8587008"
     id="path16" />
  <path
     style="fill:#ffffff;stroke:#000000;stroke-width:0.529167;stroke-linecap:round;stroke-linejoin:miter;stroke-dasharray:none"
     d="M 10.201912,5.4180492 9.3833263,5.8587008"
     id="path16-2" />
  <path
     style="fill:#28170b;stroke:none;stroke-width:0.529167;stroke-linecap:round;stroke-linejoin:miter;stroke-dasharray:none;stroke-opacity:1"
     d="m 9.8219196,8.1842913 c -1.267e-4,-0.00679 0.00743,-0.033965 0.016783,-0.06039 0.00936,-0.026427 0.028716,-0.090045 0.043017,-0.1413767 0.1673566,-0.6006878 0.1441836,-1.250247 -0.065622,-1.8393971 -0.027912,-0.07838 -0.05321,-0.1501529 -0.056218,-0.1594953 -0.00408,-0.012666 0.042222,-0.042692 0.1820029,-0.1180359 0.1031092,-0.055577 0.1896592,-0.1010497 0.1923332,-0.1010497 0.0077,0 0.07071,0.2031222 0.09328,0.3008276 0.05027,0.217552 0.06078,0.3212597 0.06078,0.5995397 0,0.2082022 -0.0045,0.2963146 -0.01993,0.3897932 -0.03813,0.231082 -0.108615,0.4775808 -0.193086,0.6752754 -0.06794,0.1589942 -0.2526784,0.4902768 -0.2533502,0.4543091 z"
     id="path17" />
  <path
     style="fill:#28170b;stroke:none;stroke-width:0.264583;stroke-linecap:round;stroke-linejoin:miter;stroke-dasharray:none;stroke-opacity:1"
     d="m 2.7852111,7.8684235 c -0.20089,-0.4093236 -0.284875,-0.7665958 -0.284875,-1.2118448 0,-0.2538698 0.03248,-0.4927719 0.09892,-0.7275129 0.01807,-0.063827 0.0369,-0.1230286 0.04186,-0.1315585 0.005,-0.00853 0.09361,0.026976 0.197003,0.078903 l 0.187986,0.094412 -0.05395,0.1426456 c -0.108819,0.2877291 -0.15826,0.5597406 -0.170419,0.9375905 -0.01199,0.3726447 0.0069,0.5757365 0.08089,0.8691139 0.02302,0.091282 0.03696,0.1708605 0.03098,0.1768403 -0.006,0.00598 -0.06376,-0.096885 -0.128396,-0.2285897 z"
     id="path18" />
</svg>
