<?xml version="1.0" encoding="UTF-8" standalone="no"?>
<!-- Created with Inkscape (http://www.inkscape.org/) -->

<svg
   width="50"
   height="50"
   viewBox="0 0 13.229166 13.229167"
   version="1.1"
   id="svg1"
   inkscape:version="1.4 (e7c3feb100, 2024-10-09)"
   sodipodi:docname="chef3.svg"
   inkscape:export-filename="../../../../../Documents/projects/foodForThought/data/images/chef/chef2.png"
   inkscape:export-xdpi="96"
   inkscape:export-ydpi="96"
   xmlns:inkscape="http://www.inkscape.org/namespaces/inkscape"
   xmlns:sodipodi="http://sodipodi.sourceforge.net/DTD/sodipodi-0.dtd"
   xmlns="http://www.w3.org/2000/svg"
   xmlns:svg="http://www.w3.org/2000/svg">
  <sodipodi:namedview
     id="namedview1"
     pagecolor="#ffffff"
     bordercolor="#000000"
     borderopacity="0.25"
     inkscape:showpageshadow="2"
     inkscape:pageopacity="0.0"
     inkscape:pagecheckerboard="0"
     inkscape:deskcolor="#d1d1d1"
     inkscape:document-units="px"
     inkscape:zoom="3.5702397"
     inkscape:cx="6.0220047"
     inkscape:cy="37.112355"
     inkscape:window-width="1438"
     inkscape:window-height="878"
     inkscape:window-x="1920"
     inkscape:window-y="200"
     inkscape:window-maximized="0"
     inkscape:current-layer="svg1" />
  <defs
     id="defs1" />
  <ellipse
     style="font-variation-settings:normal;opacity:1;fill:#2b2b2b;fill-opacity:1;fill-rule:evenodd;stroke:#000000;stroke-width:0.529167;stroke-linecap:butt;stroke-linejoin:miter;stroke-miterlimit:4;stroke-dasharray:none;stroke-dashoffset:0;stroke-opacity:1;stop-color:#000000;stop-opacity:1"
     id="path5"
     cx="5.0791187"
     cy="3.477066"
     rx="1.1862504"
     ry="1.4949695" />
  <ellipse
     style="font-variation-settings:normal;fill:#2b2b2b;fill-opacity:1;fill-rule:evenodd;stroke:#000000;stroke-width:0.529167;stroke-linecap:butt;stroke-linejoin:miter;stroke-miterlimit:4;stroke-dasharray:none;stroke-dashoffset:0;stroke-opacity:1;stop-color:#000000"
     id="path5-5"
     cx="8.744998"
     cy="9.2873421"
     rx="1.1862504"
     ry="1.4949695" />
  <ellipse
     style="fill:#ffccaa;fill-opacity:1;stroke:#000000;stroke-width:0.529167;stroke-linecap:round;stroke-linejoin:miter;stroke-dasharray:none;stroke-opacity:1"
     id="path19-9"
     cx="-0.59921432"
     cy="7.2162318"
     rx="1.1150827"
     ry="1.2914881"
     transform="matrix(-0.9898212,0.14231654,0.14231654,0.9898212,0,0)" />
  <ellipse
     style="fill:#ffccaa;fill-opacity:1;stroke:#000000;stroke-width:0.529167;stroke-linecap:round;stroke-linejoin:miter;stroke-dasharray:none;stroke-opacity:1"
     id="path19"
     cx="-12.185329"
     cy="2.1442814"
     rx="1.1150827"
     ry="1.2914881"
     transform="matrix(-0.98923296,-0.14634942,-0.14634942,0.98923296,0,0)" />
  <ellipse
     style="fill:#ffffff;stroke:#000000;stroke-width:0.529167;stroke-linecap:round;stroke-linejoin:miter;stroke-dasharray:none"
     id="path4"
     cx="-8.3798609"
     cy="8.1726933"
     rx="2.3375127"
     ry="1.4125978"
     transform="matrix(-0.9479856,0.31831322,0.31831322,0.9479856,0,0)" />
  <ellipse
     style="fill:#ffffff;stroke:#000000;stroke-width:0.529167;stroke-linecap:round;stroke-linejoin:miter;stroke-dasharray:none"
     id="path4-2"
     cx="-0.3593694"
     cy="8.1726933"
     rx="2.3375127"
     ry="1.4125978"
     transform="matrix(-0.9479856,0.31831322,0.31831322,0.9479856,0,0)" />
  <ellipse
     style="fill:#ffccaa;stroke:#000000;stroke-width:0.529167;stroke-dasharray:none"
     id="path1"
     cx="-6.9680696"
     cy="6.6656742"
     rx="4.1746202"
     ry="3.4824064"
     transform="scale(-1,1)" />
  <ellipse
     style="fill:#ffffff;stroke:#000000;stroke-width:0.529167;stroke-dasharray:none"
     id="path2"
     cx="-6.96807"
     cy="7.1648383"
     rx="3.3309989"
     ry="3.0329318"
     transform="scale(-1,1)" />
  <path
     style="fill:#ffffff;stroke:#000000;stroke-width:0.529167;stroke-linecap:round;stroke-linejoin:miter;stroke-dasharray:none"
     d="M 10.826478,5.4180492 9.9493058,5.8587008"
     id="path16" />
  <path
     style="fill:#ffffff;stroke:#000000;stroke-width:0.529167;stroke-linecap:round;stroke-linejoin:miter;stroke-dasharray:none"
     d="M 3.158721,5.4180492 3.9773068,5.8587008"
     id="path16-2" />
  <path
     style="fill:#28170b;stroke:none;stroke-width:0.529167;stroke-linecap:round;stroke-linejoin:miter;stroke-dasharray:none;stroke-opacity:1"
     d="M 3.5387135,8.1842913 C 3.5388402,8.1775021 3.5312866,8.150326 3.521931,8.123901 3.5125726,8.0974744 3.4932152,8.0338561 3.4789137,7.9825243 3.3115568,7.3818365 3.3347303,6.7322773 3.5445356,6.1431272 3.5724478,6.0647473 3.597746,5.9929743 3.6007532,5.9836319 3.6048305,5.9709663 3.5585308,5.9409398 3.4187503,5.865596 3.3156414,5.8100187 3.2290912,5.7645463 3.2264168,5.7645463 c -0.00772,0 -0.070709,0.2031222 -0.093285,0.3008276 -0.05027,0.217552 -0.060784,0.3212597 -0.060784,0.5995397 0,0.2082022 0.00451,0.2963146 0.019931,0.3897932 0.038132,0.231082 0.1086157,0.4775808 0.1930865,0.6752754 0.067935,0.1589942 0.2526782,0.4902768 0.25335,0.4543091 z"
     id="path17" />
  <path
     style="fill:#28170b;stroke:none;stroke-width:0.264583;stroke-linecap:round;stroke-linejoin:miter;stroke-dasharray:none;stroke-opacity:1"
     d="m 10.575422,7.8684235 c 0.20089,-0.4093236 0.284875,-0.7665958 0.284875,-1.2118448 0,-0.2538698 -0.03248,-0.4927719 -0.09892,-0.7275129 -0.01807,-0.063827 -0.0369,-0.1230286 -0.04186,-0.1315585 -0.005,-0.00853 -0.09361,0.026976 -0.197003,0.078903 l -0.187986,0.094412 0.05395,0.1426456 c 0.108819,0.2877291 0.15826,0.5597406 0.170419,0.9375905 0.01199,0.3726447 -0.0069,0.5757365 -0.08089,0.8691139 -0.02302,0.091282 -0.03696,0.1708605 -0.03098,0.1768403 0.006,0.00598 0.06376,-0.096885 0.128396,-0.2285897 z"
     id="path18" />
</svg>
