<?xml version="1.0" encoding="UTF-8" standalone="no"?>
<!-- Created with Inkscape (http://www.inkscape.org/) -->

<svg
   version="1.1"
   id="svg1"
   width="25.422729"
   height="19.483797"
   viewBox="0 0 25.422728 19.483796"
   sodipodi:docname="cheese.svg"
   inkscape:version="1.3.2 (091e20e, 2023-11-25)"
   inkscape:export-filename="../../images/burger/cheese.png"
   inkscape:export-xdpi="96"
   inkscape:export-ydpi="96"
   xmlns:inkscape="http://www.inkscape.org/namespaces/inkscape"
   xmlns:sodipodi="http://sodipodi.sourceforge.net/DTD/sodipodi-0.dtd"
   xmlns="http://www.w3.org/2000/svg"
   xmlns:svg="http://www.w3.org/2000/svg">
  <defs
     id="defs1">
    <inkscape:path-effect
       effect="fillet_chamfer"
       id="path-effect21"
       is_visible="true"
       lpeversion="1"
       nodesatellites_param="F,0,0,1,0,0,0,1 @ F,0,0,1,0,0,0,1 @ F,0,0,1,0,0,0,1 @ F,0,0,1,0,0,0,1 @ F,0,0,1,0,0,0,1 @ F,0,0,1,0,0,0,1 @ F,0,0,1,0,0,0,1 @ F,0,0,1,0,0,0,1 @ F,0,0,1,0,0,0,1 | F,0,0,1,0,0,0,1 @ F,0,0,1,0,0,0,1 @ F,0,0,1,0,0,0,1 @ F,0,0,1,0,0,0,1 @ F,0,0,1,0,0,0,1"
       radius="0"
       unit="px"
       method="auto"
       mode="F"
       chamfer_steps="1"
       flexible="false"
       use_knot_distance="true"
       apply_no_radius="true"
       apply_with_radius="true"
       only_selected="false"
       hide_knots="false" />
    <inkscape:path-effect
       effect="fillet_chamfer"
       id="path-effect20"
       is_visible="true"
       lpeversion="1"
       nodesatellites_param="F,0,0,1,0,0,0,1 @ F,0,0,1,0,0,0,1 @ F,0,0,1,0,0,0,1 @ F,0,0,1,0,0,0,1 @ F,0,0,1,0,0,0,1 @ F,0,0,1,0,0,0,1 @ F,0,0,1,0,0,0,1 @ F,0,0,1,0,0,0,1 @ F,0,0,1,0,0,0,1 | F,0,0,1,0,0,0,1 @ F,0,0,1,0,0,0,1 @ F,0,0,1,0,0,0,1 @ F,0,0,1,0,0,0,1 @ F,0,0,1,0,0,0,1"
       radius="0"
       unit="px"
       method="auto"
       mode="F"
       chamfer_steps="1"
       flexible="false"
       use_knot_distance="true"
       apply_no_radius="true"
       apply_with_radius="true"
       only_selected="false"
       hide_knots="false" />
    <inkscape:path-effect
       effect="fillet_chamfer"
       id="path-effect19"
       is_visible="true"
       lpeversion="1"
       nodesatellites_param="F,0,0,1,0,0,0,1 @ F,0,0,1,0,0,0,1 @ F,0,0,1,0,0,0,1 @ F,0,0,1,0,0,0,1 @ F,0,0,1,0,0,0,1 @ F,0,0,1,0,0,0,1 @ F,0,0,1,0,0,0,1 @ F,0,0,1,0,0,0,1 @ F,0,0,1,0,0,0,1 | F,0,0,1,0,0,0,1 @ F,0,0,1,0,0,0,1 @ F,0,0,1,0,0,0,1 @ F,0,0,1,0,0,0,1 @ F,0,0,1,0,0,0,1"
       radius="0"
       unit="px"
       method="auto"
       mode="F"
       chamfer_steps="1"
       flexible="false"
       use_knot_distance="true"
       apply_no_radius="true"
       apply_with_radius="true"
       only_selected="false"
       hide_knots="false" />
    <inkscape:path-effect
       effect="fillet_chamfer"
       id="path-effect18"
       is_visible="true"
       lpeversion="1"
       nodesatellites_param="F,0,0,1,0,0,0,1 @ F,0,0,1,0,0,0,1 @ F,0,0,1,0,0,0,1 @ F,0,0,1,0,0,0,1 @ F,0,0,1,0,0,0,1 @ F,0,0,1,0,0,0,1 @ F,0,0,1,0,0,0,1 @ F,0,0,1,0,0,0,1 @ F,0,0,1,0,0,0,1 | F,0,0,1,0,0,0,1 @ F,0,0,1,0,0,0,1 @ F,0,0,1,0,0,0,1 @ F,0,0,1,0,0,0,1 @ F,0,0,1,0,0,0,1"
       radius="0"
       unit="px"
       method="auto"
       mode="F"
       chamfer_steps="1"
       flexible="false"
       use_knot_distance="true"
       apply_no_radius="true"
       apply_with_radius="true"
       only_selected="false"
       hide_knots="false" />
    <inkscape:path-effect
       effect="fillet_chamfer"
       id="path-effect15"
       is_visible="true"
       lpeversion="1"
       nodesatellites_param="F,0,0,1,0,0,0,1 @ F,0,0,1,0,0,0,1 @ F,0,0,1,0,3.5664608,0,1 @ F,0,0,1,0,0,0,1"
       radius="0"
       unit="px"
       method="auto"
       mode="F"
       chamfer_steps="1"
       flexible="false"
       use_knot_distance="true"
       apply_no_radius="true"
       apply_with_radius="true"
       only_selected="false"
       hide_knots="false" />
    <inkscape:perspective
       sodipodi:type="inkscape:persp3d"
       inkscape:vp_x="0 : 10.836635 : 1"
       inkscape:vp_y="0 : 1000 : 0"
       inkscape:vp_z="25.490342 : 10.836635 : 1"
       inkscape:persp3d-origin="12.745171 : 7.954248 : 1"
       id="perspective9" />
  </defs>
  <sodipodi:namedview
     id="namedview1"
     pagecolor="#ffffff"
     bordercolor="#000000"
     borderopacity="0.25"
     inkscape:showpageshadow="2"
     inkscape:pageopacity="0.0"
     inkscape:pagecheckerboard="0"
     inkscape:deskcolor="#d1d1d1"
     inkscape:zoom="23.785522"
     inkscape:cx="9.0391121"
     inkscape:cy="12.928032"
     inkscape:window-width="1440"
     inkscape:window-height="900"
     inkscape:window-x="0"
     inkscape:window-y="0"
     inkscape:window-maximized="0"
     inkscape:current-layer="path2" />
  <g
     inkscape:groupmode="layer"
     inkscape:label="Image"
     id="g1"
     transform="translate(-5.6651342,-7.6367103)">
    <g
       id="path2">
      <path
         id="rect15"
         style="fill:#ffcc00;stroke:#000000;stroke-width:1"
         d="m 6.1651342,14.080705 24.3441708,2.75152 v 9.728586 L 6.1651342,23.809291 Z"
         sodipodi:nodetypes="ccccc" />
      <g
         id="g33"
         inkscape:label="g33"
         transform="matrix(1.3178603,-0.04574115,0.04597684,1.3111045,-6.3705198,-2.3486865)"
         style="stroke-width:0.760295">
        <path
           d="m 9.8322826,11.591145 c -0.00155,0.0023 -0.00419,0.0055 -0.00586,0.0078 -0.00167,0.0023 -0.00239,0.0036 -0.00391,0.0059 -0.00398,0.006 -0.00793,0.01157 -0.011719,0.01758 -0.00115,0.002 -0.00252,0.0039 -0.00391,0.0059 -0.00114,0.002 -0.00277,0.0039 -0.00391,0.0059 -0.0012,0.002 -0.00274,0.0038 -0.00391,0.0059 -0.00119,0.0021 -0.00282,0.0038 -0.00391,0.0059 -6.964e-4,0.0012 -0.00126,0.0027 -0.00195,0.0039 -6.166e-4,0.0013 -0.00126,0.0027 -0.00195,0.0039 v 0.002 c -0.0024,0.0042 -0.00544,0.0075 -0.00781,0.01172 -0.00489,0.0087 -0.00887,0.01672 -0.013672,0.02539 -5.792e-4,10e-4 5.778e-4,0.0029 0,0.0039 0.015251,-0.02599 0.031821,-0.0518 0.046875,-0.07813 l 0.00195,-0.002 c 0.0026,-0.0045 0.0052,-0.0092 0.00781,-0.01367 0.002,-0.0038 0.00388,-0.0081 0.00586,-0.01172 z"
           style="fill:#ffcc00;stroke-width:0.68565"
           id="path53" />
        <path
           d="m 13.965095,9.0442701 c -0.06408,0.00388 -0.163067,0.00909 -0.306641,0.021484 -0.05231,0.00433 -0.10419,0.00981 -0.15625,0.015625 -0.0293,0.00328 -0.05871,0.00588 -0.08789,0.00977 -0.08513,0.011346 -0.170407,0.024779 -0.253906,0.042969 -0.112284,0.030299 -0.222825,0.064793 -0.332032,0.1015625 -0.03289,0.011069 -0.06505,0.023526 -0.09766,0.035156 -0.08344,0.029785 -0.166602,0.060405 -0.248047,0.09375 -0.02432,0.00996 -0.04814,0.020988 -0.07226,0.03125 -0.0871,0.037038 -0.173192,0.076302 -0.257813,0.1171875 -0.0189,0.00913 -0.03787,0.018028 -0.05664,0.027344 -0.10212,0.050683 -0.20257,0.1022937 -0.300781,0.1582031 -0.08612,0.050444 -0.171052,0.1052001 -0.255859,0.1601563 -0.103071,0.066791 -0.204906,0.1360291 -0.304688,0.2089845 -0.0019,0.0014 -0.004,0.0025 -0.0059,0.0039 -0.0039,0.0025 -0.0079,0.005 -0.01172,0.0078 -0.02732,0.02018 -0.05504,0.03991 -0.08203,0.06055 -0.004,0.0031 -0.0077,0.0067 -0.01172,0.0098 -0.05283,0.04078 -0.104824,0.0826 -0.15625,0.125 -0.0064,0.0053 -0.01313,0.01028 -0.01953,0.01563 -0.02732,0.02273 -0.05147,0.04721 -0.07813,0.07031 -0.06246,0.05412 -0.124766,0.108102 -0.183594,0.164063 -0.09471,0.09057 -0.187028,0.183338 -0.273437,0.279297 -0.0025,0.0027 -0.0054,0.0051 -0.0078,0.0078 -0.0012,0.0014 -0.0027,0.0025 -0.0039,0.0039 -0.05459,0.06109 -0.109106,0.124391 -0.160156,0.1875 -0.3172871,0.392229 -0.5653951,0.821044 -0.7285159,1.269532 l 15.3242189,2.332031 z"
           style="fill:#ffcc00;stroke-width:0.68565"
           id="path52" />
        <path
           d="m 13.051033,9.1634107 c -0.0078,0.00209 -0.01568,0.00393 -0.02344,0.00586 -0.0073,0.00192 -0.01415,0.00583 -0.02148,0.00781 0.01493,-0.00447 0.02994,-0.00931 0.04492,-0.013672 z m -0.04492,0.013672 c -0.04745,0.012805 -0.09437,0.021997 -0.142578,0.037109 -0.007,0.00221 -0.01444,0.0036 -0.02149,0.00586 -0.004,0.00129 -0.0077,0.0026 -0.01172,0.00391 -0.0026,7.468e-4 -0.0052,0.00112 -0.0078,0.00195 -0.08878,0.028899 -0.179012,0.065431 -0.269531,0.1015625 -0.0051,0.00206 -0.0105,0.00379 -0.01563,0.00586 -0.0051,0.00208 -0.0105,0.00377 -0.01563,0.00586 -0.0012,4.696e-4 -0.0028,-4.706e-4 -0.0039,0 -0.0053,0.00161 -0.01045,0.00373 -0.01563,0.00586 -0.0018,6.078e-4 -0.0041,0.00142 -0.0059,0.00195 -0.0027,0.00113 -0.0051,0.00277 -0.0078,0.00391 -0.0028,0.00114 -0.0051,0.00277 -0.0078,0.00391 -0.004,0.00165 -0.0077,0.0042 -0.01172,0.00586 -0.0063,0.00266 -0.0132,0.00512 -0.01953,0.00781 -0.0046,0.00188 -0.0092,0.00394 -0.01367,0.00586 -0.0157,0.00672 -0.03107,0.014502 -0.04687,0.021484 -0.04727,0.020845 -0.09516,0.041872 -0.142578,0.064453 -0.02604,0.01242 -0.05208,0.024193 -0.07813,0.037109 -0.0032,0.00158 -0.0066,0.00232 -0.0098,0.00391 -5.39e-4,2.683e-4 -0.0014,-2.685e-4 -0.002,0 -0.0014,4.313e-4 -0.0025,0.0014 -0.0039,0.00195 -0.004,0.00198 -0.0077,0.00387 -0.01172,0.00586 -0.0013,5.986e-4 -0.0026,0.00131 -0.0039,0.00195 -0.01272,0.00606 -0.02449,0.013071 -0.03711,0.019531 -0.0034,0.00173 -0.0064,0.00412 -0.0098,0.00586 -0.0053,0.00272 -0.01041,0.00485 -0.01563,0.00781 -0.0054,0.0028 -0.01022,0.00695 -0.01563,0.00977 0.299912,-0.1509578 0.617179,-0.2780222 0.947266,-0.3769531 z"
           style="stroke-width:0.68565"
           id="path51" />
        <path
           d="M 14.234626,8.1126294 C 12.928215,8.1062394 11.663459,8.5296227 10.693611,9.2473951 9.4967567,10.05588 9.1291599,11.195071 8.6998543,12.407582 c 0.573244,0.277873 -0.2813567,0.687657 0.1967321,0.644747 l 18.6114776,2.884519 0.388672,-0.833984 z M 13.965095,9.0442701 24.836189,14.604817 9.5119701,12.272786 c 0.1289588,-0.397903 0.3785351,-0.842469 0.7285159,-1.269532 0.05105,-0.06311 0.105562,-0.12641 0.160156,-0.1875 0.38675,-0.432286 0.860622,-0.813241 1.394531,-1.1171871 0.459723,-0.2692567 0.933694,-0.4697957 1.365235,-0.5644531 0.0835,-0.01819 0.168778,-0.031623 0.253906,-0.042969 0.01336,-0.00167 0.02779,-0.00442 0.04102,-0.00586 0.02143,-0.00234 0.02731,-0.00187 0.04687,-0.00391 0.05206,-0.00582 0.103937,-0.011291 0.15625,-0.015625 0.143574,-0.012396 0.242558,-0.017607 0.306641,-0.021484 z"
           style="stroke-width:0.68565"
           id="path50"
           sodipodi:nodetypes="cccccccccccccccccccc" />
      </g>
    </g>
  </g>
</svg>
