<?xml version="1.0" encoding="UTF-8" standalone="no"?>
<!-- Created with Inkscape (http://www.inkscape.org/) -->

<svg
   version="1.1"
   id="svg1"
   width="25.001148"
   height="14.220106"
   viewBox="0 0 25.001148 14.220106"
   sodipodi:docname="taco.svg"
   inkscape:version="1.3.2 (091e20e, 2023-11-25)"
   xmlns:inkscape="http://www.inkscape.org/namespaces/inkscape"
   xmlns:sodipodi="http://sodipodi.sourceforge.net/DTD/sodipodi-0.dtd"
   xmlns="http://www.w3.org/2000/svg"
   xmlns:svg="http://www.w3.org/2000/svg">
  <defs
     id="defs1" />
  <sodipodi:namedview
     id="namedview1"
     pagecolor="#ffffff"
     bordercolor="#000000"
     borderopacity="0.25"
     inkscape:showpageshadow="2"
     inkscape:pageopacity="0.0"
     inkscape:pagecheckerboard="0"
     inkscape:deskcolor="#d1d1d1"
     inkscape:zoom="13.350176"
     inkscape:cx="8.2770444"
     inkscape:cy="11.797597"
     inkscape:window-width="1440"
     inkscape:window-height="872"
     inkscape:window-x="0"
     inkscape:window-y="28"
     inkscape:window-maximized="0"
     inkscape:current-layer="g1" />
  <g
     inkscape:groupmode="layer"
     inkscape:label="Image"
     id="g1"
     transform="translate(5.7405499e-4,-10.780564)">
    <path
       id="path1"
       style="fill:#ffcc00;stroke:#000000;stroke-width:1.12906"
       d="m 0.56395596,24.43614 a 11.936044,12.469152 0 0 1 5.96802244,-10.798604 11.936044,12.469152 0 0 1 11.9360446,10e-7 11.936044,12.469152 0 0 1 5.968021,10.798603 H 12.5 Z" />
    <path
       id="path6"
       style="fill:#552200;stroke:#000000;stroke-width:1;stroke-dasharray:none"
       d="m 21.840977,17.966094 c 0,3.692319 -4.048809,5.346465 -9.207688,5.346465 -5.1588775,0 -9.4742659,-1.654146 -9.4742659,-5.346465 -1.5e-6,-3.688085 4.1873366,-6.68553 9.3409759,-6.68553 2.579441,0 4.914686,0.748304 6.605068,1.958145 1.690385,1.209846 2.73591,2.881227 2.73591,4.727385 z"
       sodipodi:nodetypes="ssssss" />
    <path
       id="path6-6"
       style="fill:#d40000;stroke:#000000;stroke-width:1;stroke-dasharray:none"
       d="m 15.988135,17.966094 c 0,2.473732 -2.780363,3.581956 -6.323025,3.581956 -3.5426606,0 -6.5060869,-1.108224 -6.5060869,-3.581956 -1e-6,-2.470896 2.8754915,-4.479086 6.4145551,-4.479086 1.7713318,0 3.3749708,0.501339 4.5357758,1.311893 1.160807,0.810557 1.878781,1.930327 1.878781,3.167193 z"
       sodipodi:nodetypes="ssssss" />
    <path
       id="path6-6-1"
       style="fill:#d40000;stroke:#000000;stroke-width:1;stroke-dasharray:none"
       d="m 22.466994,17.966094 c 0,2.473732 -2.780363,3.581956 -6.323025,3.581956 -3.54266,0 -6.5060868,-1.108224 -6.5060868,-3.581956 -10e-7,-2.470896 2.8754918,-4.479086 6.4145548,-4.479086 1.771332,0 3.374971,0.501339 4.535776,1.311893 1.160807,0.810557 1.878781,1.930327 1.878781,3.167193 z"
       sodipodi:nodetypes="ssssss" />
    <path
       style="fill:#ffcc00;stroke:#000000;stroke-width:1.02593;stroke-dasharray:none"
       id="path2"
       sodipodi:type="arc"
       sodipodi:cx="-12.5"
       sodipodi:cy="-24.43614"
       sodipodi:rx="11.986489"
       sodipodi:ry="10.251837"
       sodipodi:start="0"
       sodipodi:end="3.1415927"
       sodipodi:arc-type="slice"
       d="m -0.5135107,-24.43614 a 11.986489,10.251837 0 0 1 -5.9932448,8.878351 11.986489,10.251837 0 0 1 -11.9864895,0 11.986489,10.251837 0 0 1 -5.993244,-8.878351 H -12.5 Z"
       transform="scale(-1)" />
  </g>
</svg>
